<?xml version="1.0" standalone="no"?>
<!DOCTYPE svg PUBLIC "-//W3C//DTD SVG 20010904//EN"
 "http://www.w3.org/TR/2001/REC-SVG-20010904/DTD/svg10.dtd">
<svg version="1.0" xmlns="http://www.w3.org/2000/svg"
 width="136.000000pt" height="134.000000pt" viewBox="0 0 136.000000 134.000000"
 preserveAspectRatio="xMidYMid meet">

<g transform="translate(0.000000,134.000000) scale(0.100000,-0.100000)"
fill="#000000" stroke="none">
<path d="M650 1230 c0 -25 4 -30 25 -30 21 0 25 5 25 30 0 25 -4 30 -25 30
-21 0 -25 -5 -25 -30z"/>
<path d="M497 1216 c-38 -14 -89 -38 -115 -55 -45 -29 -46 -31 -19 -31 15 0
49 11 75 24 46 23 90 38 145 50 33 8 37 36 5 36 -13 0 -54 -11 -91 -24z"/>
<path d="M740 1226 c0 -9 11 -18 28 -22 58 -13 99 -27 141 -50 49 -27 101 -33
82 -11 -17 22 -162 86 -208 93 -36 5 -43 4 -43 -10z"/>
<path d="M260 1070 c0 -27 3 -30 30 -30 27 0 30 3 30 30 0 27 -3 30 -30 30
-27 0 -30 -3 -30 -30z"/>
<path d="M1020 1070 c0 -25 4 -30 25 -30 21 0 25 5 25 30 0 25 -4 30 -25 30
-21 0 -25 -5 -25 -30z"/>
<path d="M182 932 c-39 -83 -53 -162 -29 -162 11 0 19 16 27 53 6 28 26 80 44
115 33 61 33 62 11 62 -18 0 -28 -14 -53 -68z"/>
<path d="M1120 948 c16 -29 37 -81 46 -115 10 -38 22 -63 30 -63 20 0 17 31
-7 103 -27 80 -56 127 -79 127 -16 0 -15 -5 10 -52z"/>
<path d="M710 886 c0 -1 -27 -80 -60 -175 -33 -96 -59 -175 -58 -177 2 -1 14
-5 28 -8 24 -6 26 -2 83 163 32 94 56 175 53 180 -5 7 -46 23 -46 17z"/>
<path d="M447 759 l-68 -50 67 -55 c69 -56 80 -60 98 -31 8 13 3 23 -29 51
-34 30 -38 37 -24 46 9 5 26 18 39 28 20 16 21 21 9 40 -8 12 -16 22 -19 22
-3 -1 -36 -23 -73 -51z"/>
<path d="M809 788 c-10 -19 -7 -25 26 -53 l38 -31 -42 -33 c-40 -32 -41 -34
-25 -52 9 -11 20 -19 23 -19 10 0 131 100 131 109 0 7 -125 101 -135 101 -2 0
-9 -10 -16 -22z"/>
<path d="M110 710 c0 -27 3 -30 30 -30 27 0 30 3 30 30 0 27 -3 30 -30 30 -27
0 -30 -3 -30 -30z"/>
<path d="M1180 710 c0 -27 3 -30 30 -30 27 0 30 3 30 30 0 27 -3 30 -30 30
-27 0 -30 -3 -30 -30z"/>
<path d="M144 593 c9 -68 64 -183 87 -183 11 0 19 1 19 3 0 1 -13 28 -29 59
-16 32 -35 83 -42 113 -8 36 -17 55 -27 55 -12 0 -13 -9 -8 -47z"/>
<path d="M1170 588 c-6 -29 -24 -80 -40 -112 -17 -32 -30 -60 -30 -62 0 -2 8
-4 19 -4 13 0 26 17 44 58 45 101 58 172 33 172 -9 0 -18 -19 -26 -52z"/>
<path d="M260 340 c0 -27 3 -30 30 -30 27 0 30 3 30 30 0 27 -3 30 -30 30 -27
0 -30 -3 -30 -30z"/>
<path d="M1020 340 c0 -25 4 -30 25 -30 21 0 25 5 25 30 0 25 -4 30 -25 30
-21 0 -25 -5 -25 -30z"/>
<path d="M345 270 c17 -28 153 -89 233 -103 26 -5 32 -3 32 11 0 14 -13 21
-55 29 -31 7 -83 26 -116 43 -58 29 -106 40 -94 20z"/>
<path d="M910 250 c-30 -15 -81 -34 -112 -41 -45 -10 -58 -17 -58 -32 0 -13 5
-17 18 -13 9 2 33 8 52 12 42 8 145 56 180 84 l25 20 -25 -1 c-14 0 -50 -13
-80 -29z"/>
<path d="M650 175 c0 -20 5 -25 25 -25 20 0 25 5 25 25 0 20 -5 25 -25 25 -20
0 -25 -5 -25 -25z"/>
</g>
</svg>
